<svg width="86" height="51.425" viewBox="0 0 86 51.425" xmlns="http://www.w3.org/2000/svg">
    <g fill="#000" fill-rule="evenodd" fill-opacity=".12">
        <path d="M43.694 33.962s.877-.726.992-4.125c0 0 .305-1.796-.496-10.351 0 0-.916-12.566-.802-12.833 0 0 1.142 1.413 1.41 1.528 0 0 .281.321-.227-1.528l-1.794-5.195-1.068 2.063v.497l1.985 29.944zM32.383 22.058l-2.188-1.273 1.323-1.935 2.086 1.374zM27.14 19.97l1.324-1.859-2.112-1.451-1.069 1.527-2.162-1.375L22 18.85l2.112 1.375 1.12-1.578zM22.637 7.5s10.729-5.015 11.772-5.116c0 0-.06.706-.315 1.012l-11.546 5.09s-.239.104.089-.985M67.692 7.5s10.729-5.015 11.772-5.116c0 0-.06.706-.315 1.012l-11.546 5.09s-.238.104.09-.985M64.7 20.425s-.159-.936-1.103-.393l-.617.393s.786.561 2.039.842c0 0 .056.035.224 0 .173-.036 1.832-1.048 1.832-1.048l-.467 1.31-.206.168-3.863 2.377-.756.708s.3-1.494.486-1.662l1.01-.764s-1.309-.49-1.346-.696c0 0 .692-2.17 2.356-3.05 0 0 .655-.225.954 0 0 0 .243.29.093 1.01 0 0-.187.786-.636.805M78.169 11.58s-.06.344-.243.344c0 0-.83-.527-.91-.71 0 0-.021-1.397.708-1.215 0 0 1.376.365 1.761 3.12 0 0 .405-3.484 1.518-3.626 0 0 .547-.081 1.033.73l-.304.972s-.668-.79-.972-.75c0 0-.404.281-.506.86 0 0-.405 2.665-.87 2.969 0 0-.232.309-.431-.996a1.277 1.277 0 0 0-.046-.198c-.105-.324-.45-1.331-.738-1.5M9.36 5.037s-.076.433-.305.433c0 0-1.044-.662-1.145-.891 0 0-.026-1.757.89-1.528 0 0 1.73.458 2.214 3.921 0 0 .509-4.38 1.908-4.558 0 0 .687-.101 1.298.917l-.382 1.222s-.84-.993-1.22-.942c0 0-.49.271-.637 1.081 0 0-.774 3.24-1.094 3.732 0 0-.076.385-.56-1.375 0 0-.534-1.757-.967-2.012M68.287 35.044l2.112 1.375-1.17 1.884-2.036-1.324-1.145 1.706-2.138-1.324 1.222-1.859 1.983 1.217z"/>
        <path d="M26.607 29.085c-.012-.016-1.523-2.193-.306-3.182 0 0 1.145-1.248 1.73-.153 0 0 .713 1.45.433 2.088l-1.857 1.247zm11.781-5.525L36.836 6.933s-.025-.713.229-.178c0 0 .89 1.63 1.018 1.196L36.302 1.46H36.3l-1.17 1.908c.004.005.305.308.305.611 0 .306 1.425 18.639 1.425 18.639s.427 3.964.455 5.469a.875.875 0 0 1-.487.8c-1.015.503-3.397 1.257-3.835-2.45 0 0-2.214 3.36-4.834 3.31h-.001a5.363 5.363 0 0 0 .407-6.467s-3.488-.653-3.512 5.398c0 .272.102.921.179 1.072 0 0-3.207 1.652-4.784-1.861 0 0-.586-2.674-.636-5.806 0 0-.331-8.81-.459-10.949 0 0-.33-8.828-.813-9.802h-.001l-.941 2.443c0 .011 1.285 18.042.75 21.211 0 0-8.359 9.625-15.496 5.882 0 0-3.816-2.902-.345-9.622 0-.002.002-.003.004-.002.065.012 1.472.24 2.497-3.228 0 0 .21-.497-.057-.688 0 0-.134.134-.363.554 0 .001-.343 1.413-1.297 1.241 0 0-1.693-.627-.42-3.055l2.589-4.603.144-.578a.134.134 0 0 0 0-.066l-.067-.246s0-.001 0 0c-.035.04-3.793 4.547-4.047 8.02 0 0-.381 1.273.662 2.47 0 0-3.333 5.321-1.705 9.676 0 0 .993 3.895 6.87 3.233 0 0 3.945.204 10.84-7.282 0 0 .535-1.68.662-1.68 0 0-.254 5.066 2.112 6.747 0 0 1.654 1.63 5.113-.534h.002c.044.04 3.024 2.737 6.03-2.445 0 0 .255-.204.204.356 0 0 .304 2.486 2.633 2.243a.117.117 0 0 1 .025 0c.168.017 2.098.14 3.144-3.388 0 0 .585-1.63.305-4.43zM72.928 20.431c-.53.472-1.054.495-1.573.198-.52-.297.494-1.608.494-1.608s1.61.938 1.08 1.41m-.882-2.721s-1.681 2.078-1.236 3.958c0 0 .346.767 1.236.42.89-.346 1.31-.593 1.384-1.78.074-1.188.346-1.559-1.384-2.598"/>
        <path d="M29.056 10.35s-.191.878-.172 1.031c0 0 .21 0 .172.497 0 0-.42 2.272.878 2.349 1.298.076 1.545-1.375 1.622-1.605.076-.229.267.974 1.355.917 1.088-.057.897-1.318.916-1.585.019-.267-.121-.936-.223-1.012-.101-.077-.54-1.07-.56-1.241 0 0-.19-.077-.21.229-.019.305-.133.668-.133.668s.382.972.42 1.04c.038.068.744.832-.058.87-.801.038-1.183-.55-1.24-1.24 0 0-.363-1.376-.706-1.701 0 0-.134.286-.096.496 0 0-.19.344-.133.516.057.172.42.68.382 1.076-.038.394.171 1.426-1.28 1.56 0 0-.877.074-.61-1.577 0 0 .077-1.02-.324-1.288M54.729 14.068c-.062-.005-.125-.01-.18-.032-.064-.027-.1-.084-.147-.126l-.06.05-1.246 1.681-1.96-1.324-1.068 1.91 1.883 1.298 1.221-1.63 1.807 1.248 1.272-1.782-1.628-1.222.106-.07zM84.496 30.308c-1.272.178-4.083-.84-4.083-.84l1.131-2.241c2.647 1.273 3.283 2.368 3.283 2.368.712.84-.33.713-.33.713m-4.123-2.292c-.076.153-1.578 1.07-1.578 1.07-1.501-.484-1.603-1.401-1.603-1.401-.33-1.808 1.781-2.317 1.781-2.317 1.807.636 1.4 2.648 1.4 2.648M51.747 29.85c-.593.165-.987.083-1.243-.063a.765.765 0 0 1-.332-.896c.833-2.667 4.094-4.159 4.094-4.159s.128 2.7.128 3.514c0 .815-1.273 1.222-2.647 1.604m32.113-3.768c-2.137-1.324-3.079-2.292-3.079-2.292.204.128 1.323 0 1.323 0 .076-.127-.203-.51-.203-.51l-3.36-2.087-.025 2.215.102.357c-1.221.993-1.781 2.444-1.781 2.444-1.043 2.597-.28 3.972-.28 3.972-.254.128-1.96.637-1.96.637-3.664.509-4.055-.705-4.147-1.836-.102-1.246-.076-1.016-.076-1.016-.235.047-1.118 1.435-1.255 1.652l-.033.06c-.977 1.69-1.746 1.664-2.504 1.69-2.08.075-2.113-1.404-1.832-2.027.235-.522.076-.738.076-.738-.229.025-1.752 1.917-2.468 2.393-4.148 2.76-6.285-1.146-6.285-1.146-.178-1.044-.433-6.289-.433-6.289 1.883-1.808 2.85-3.412 2.85-3.412.382-.535.535-1.451.535-1.451-.84 1.553-3.537 3.794-3.537 3.794s-.357-1.834-.357-2.037c0-.204-.254-.611-.254-.611l-.941 2.215.203 1.706c-2.646 1.986-3.257 2.826-3.257 2.826-4.326 6.875.763 5.322.763 5.322 2.457-.931 2.768-2.152 2.797-2.302a.18.18 0 0 1 .011-.035l.007-.015c.077-.173.334-.112.328.078-.054 1.553.802 2.987.802 2.987 2.162 2.623 5.674.815 5.674.815.916-.382 2.672-2.496 2.672-2.496-.127.968-.078 1.313.127 1.68 1.33 2.391 3.868.23 3.868.23.432-.331 1.73-2.419 1.73-2.419.413 2.185 2.12 2.426 2.279 2.443a.13.13 0 0 1 .024.005c2.595.752 6.196-1.684 6.196-1.684.61.203 3.721.996 4.987 1.197 1.929.305 2.621-2.267 2.621-2.267 1.07-2.571-1.908-4.048-1.908-4.048M61.658 1.43c.181-.316.68-.406.68-.406.538-.169.721.163.721.163.223.242.15.763.15.763.033.512-.241 1.053-.241 1.053-.296-.166-1.017-.834-1.017-.834-.534-.61-.293-.74-.293-.74m.627 2.406c-.11.268-1.165 1.238-1.165 1.238-.921.913-2.623 2.304-2.623 2.304-1.663 1.281-2.626 1.949-2.626 1.949-2.19 1.475-1.968 1.508-1.968 1.508.069.1.333-.033.333-.033a15.33 15.33 0 0 0 1.264-.745 77.61 77.61 0 0 0 1.946-1.221c1.218-.803 1.752-1.247 1.752-1.247 1.148-.964 1.488-1.323 1.488-1.323.85-.777 1.322-1.39 1.322-1.39.72-1.006.664-.767.664-.767.112.024.387.45.387.45.242.257.408.662.408.662.073-.015.311-.868.311-.868.023-.234-.155-.548-.155-.548-.1-.229-.441-.606-.441-.606-.031-.07.192-.4.192-.4.26-.437.397-1 .397-1 .14-.801-.055-1.348-.055-1.348-.194-.691-1.144-.38-1.144-.38-1.051.563-1.481 1.88-1.481 1.88a1.11 1.11 0 0 0 .093.764c.278.566 1.101 1.12 1.101 1.12"/>
        <g fill-rule="nonzero">
            <path d="M11.933 50.013v-4.729h-1.876v-.561h4.503v.561h-1.876v4.729zM14.981 50.013V46.13h.704v.73c.28-.544.684-.815 1.216-.815.071 0 .146.005.225.017v.658a1.035 1.035 0 0 0-.322-.06c-.446 0-.818.264-1.119.793v2.559h-.704zM19.978 49.52c-.422.388-.828.582-1.219.582-.322 0-.588-.1-.8-.302a1.007 1.007 0 0 1-.319-.763c0-.424.178-.75.535-.977.356-.228.866-.342 1.531-.342h.168v-.468c0-.45-.23-.676-.693-.676-.372 0-.773.115-1.205.344v-.583c.475-.193.919-.29 1.334-.29.433 0 .753.098.96.294.205.195.308.499.308.911v1.759c0 .402.124.604.372.604a.935.935 0 0 0 .136-.015l.05.39c-.16.076-.336.114-.529.114-.329 0-.539-.194-.63-.582zm-.104-.383v-1.004l-.236-.007c-.386 0-.698.073-.936.22-.238.146-.358.338-.358.577 0 .169.06.312.18.429a.6.6 0 0 0 .435.175c.293 0 .598-.13.915-.39zM22.019 50.013V46.13h.704v.73c.372-.544.827-.815 1.365-.815.336 0 .604.106.804.32.2.213.3.5.3.859v2.788h-.703v-2.56c0-.288-.043-.493-.127-.616-.085-.123-.225-.184-.42-.184-.432 0-.838.282-1.22.847v2.513h-.703zM27.591 50.102c-.322 0-.712-.075-1.172-.225v-.647c.46.229.86.343 1.2.343.203 0 .371-.055.505-.164a.51.51 0 0 0 .2-.411c0-.24-.187-.44-.561-.597l-.411-.175c-.608-.253-.912-.616-.912-1.09 0-.339.12-.605.36-.8.239-.193.567-.29.984-.29.217 0 .485.03.804.089l.147.028v.587c-.393-.117-.706-.176-.937-.176-.452 0-.679.165-.679.494 0 .212.172.39.515.536l.34.143c.383.162.655.333.814.513.16.18.24.404.24.673 0 .341-.135.621-.404.84-.27.22-.614.33-1.033.33zM30.293 51.425V46.13h.704v.73c.289-.544.721-.815 1.298-.815.467 0 .834.17 1.102.51.268.341.402.807.402 1.398 0 .644-.151 1.162-.455 1.557a1.441 1.441 0 0 1-1.2.591c-.46 0-.842-.176-1.147-.529v1.852h-.704zm.704-2.338c.362.324.708.486 1.037.486.676 0 1.015-.516 1.015-1.547 0-.91-.3-1.366-.9-1.366-.394 0-.778.214-1.152.64v1.787zM36.42 50.102c-.556 0-1-.184-1.33-.552-.331-.368-.497-.86-.497-1.478 0-.624.166-1.118.499-1.481.332-.364.783-.545 1.352-.545.57 0 1.02.181 1.353.545.333.363.499.854.499 1.474 0 .634-.167 1.132-.5 1.494-.334.362-.793.543-1.377.543zm.01-.529c.746 0 1.119-.503 1.119-1.508 0-.994-.368-1.49-1.105-1.49-.734 0-1.1.499-1.1 1.497 0 1 .362 1.501 1.086 1.501zM39.397 50.013V46.13h.704v.73c.279-.544.684-.815 1.215-.815.071 0 .147.005.225.017v.658a1.035 1.035 0 0 0-.322-.06c-.445 0-.818.264-1.118.793v2.559h-.704zM43.557 50.102c-.357 0-.636-.102-.836-.307-.2-.205-.3-.49-.3-.854v-2.28h-.487v-.53h.486v-.704l.705-.068v.772h1.015v.53h-1.015v2.151c0 .507.219.761.657.761.093 0 .206-.015.34-.046v.486c-.217.06-.405.09-.565.09zM50.105 47.99l-.9-2.28-.905 2.28h1.805zm.793 2.023-.575-1.466h-2.241l-.583 1.466h-.697l2.098-5.29h.744l2.066 5.29h-.812zM54.923 50.013v-.73c-.374.546-.828.82-1.362.82-.338 0-.607-.107-.807-.32-.2-.214-.3-.502-.3-.864v-2.788h.703v2.56c0 .29.043.497.127.62.085.122.226.184.424.184.429 0 .834-.283 1.215-.847V46.13h.704v3.882h-.704zM58.204 50.102c-.357 0-.636-.102-.836-.307-.2-.205-.3-.49-.3-.854v-2.28h-.487v-.53h.487v-.704l.704-.068v.772h1.015v.53h-1.015v2.151c0 .507.219.761.657.761.093 0 .206-.015.34-.046v.486c-.217.06-.405.09-.565.09zM59.777 50.013v-5.644h.704v2.491c.372-.543.827-.814 1.365-.814.336 0 .604.106.805.32.2.213.3.5.3.859v2.788h-.704v-2.56c0-.288-.043-.493-.127-.616-.085-.123-.225-.184-.42-.184-.432 0-.838.282-1.219.847v2.513h-.704zM65.839 50.102c-.555 0-.999-.184-1.33-.552-.331-.368-.497-.86-.497-1.478 0-.624.166-1.118.499-1.481.332-.364.783-.545 1.353-.545s1.02.181 1.353.545c.332.363.498.854.498 1.474 0 .634-.167 1.132-.5 1.494-.334.362-.792.543-1.376.543zm.01-.529c.746 0 1.12-.503 1.12-1.508 0-.994-.369-1.49-1.105-1.49-.734 0-1.101.499-1.101 1.497 0 1 .362 1.501 1.086 1.501zM68.816 50.013V46.13h.704v.73c.279-.544.684-.815 1.215-.815.072 0 .147.005.226.017v.658a1.035 1.035 0 0 0-.322-.06c-.446 0-.819.264-1.119.793v2.559h-.704zM71.811 50.013V46.13h.704v3.882h-.704zm0-4.586v-.704h.704v.704h-.704zM75.092 50.102c-.357 0-.636-.102-.836-.307-.2-.205-.3-.49-.3-.854v-2.28h-.486v-.53h.486v-.704l.704-.068v.772h1.015v.53H74.66v2.151c0 .507.22.761.658.761.092 0 .206-.015.34-.046v.486c-.218.06-.406.09-.566.09zM76.89 51.425l.63-1.412-1.502-3.882h.761l1.112 2.924 1.187-2.924h.664l-2.12 5.294z"/>
        </g>
    </g>
</svg>
