<svg width="173" height="134" viewBox="0 0 173 134" xmlns="http://www.w3.org/2000/svg">
    <g fill="none" fill-rule="evenodd">
        <text font-family="Qahiri-Regular, Qahiri" font-size="84" letter-spacing=".93" fill="orange">
                    <tspan x="0" y="96">أصول</tspan>
                </text>
        <text font-family="Cairo-Light, Cairo" font-size="14" font-weight="300" letter-spacing=".105" fill="#000" fill-opacity=".7">
                    <tspan x="53" y="126">نظام جرد هيئة النقل</tspan>
                </text>
        <path stroke="#303030" stroke-width="2.094" d="M69.525 0v37.815M77.289 0v32.489M81.801 0v32.489M85.893 0v32.489M91.874 0v32.489M95.756 0v32.489M103.206 0v20.452M107.507 0v19.707M113.173 0v21.624M117.475 0v32.489"/>
        <g stroke="#303030" stroke-width="2.094">
            <path d="M114.642 38.135a10.652 10.652 0 0 1-15.214 0c-4.197-4.261-4.197-11.079 0-15.233s11.017-4.26 15.214 0c4.197 4.261 4.197 10.972 0 15.233zM99.428 38.134 88.621 49"/>
        </g>
        <path d="M78.653 36.963c0 2.13-.734 3.302-2.098 3.302-1.155 0-1.994-1.172-1.994-3.195 0-2.13.84-3.196 2.099-3.196 1.259 0 1.993 1.172 1.993 3.089zm-3.357.107c0 1.597.524 2.556 1.259 2.556.839 0 1.259-.959 1.259-2.556 0-1.492-.42-2.557-1.26-2.557-.734 0-1.258.852-1.258 2.557zM85.578 36.963c0 2.13-.734 3.302-2.098 3.302-1.155 0-1.994-1.172-1.994-3.195 0-2.13.84-3.196 2.099-3.196 1.259 0 1.993 1.172 1.993 3.089zm-3.253.107c0 1.597.525 2.556 1.26 2.556.839 0 1.259-.959 1.259-2.556 0-1.492-.42-2.557-1.26-2.557-.734 0-1.259.852-1.259 2.557zM91.979 36.963c0 2.13-.735 3.302-2.099 3.302-1.154 0-1.993-1.172-1.993-3.195 0-2.13.839-3.196 2.098-3.196 1.26 0 1.994 1.172 1.994 3.089zm-3.253.107c0 1.597.525 2.556 1.259 2.556.84 0 1.26-.959 1.26-2.556 0-1.492-.42-2.557-1.26-2.557-.734 0-1.26.852-1.26 2.557z" fill="#303030" fill-rule="nonzero"/>
    </g>
</svg>
