<svg width="185.46" height="131.222" viewBox="0 0 185.46 131.222" xmlns="http://www.w3.org/2000/svg">
    <g fill="none" fill-rule="evenodd">
        <path d="M162.14 115.976v8.624c0 .205.051.364.154.476.112.121.275.182.49.182h2.478v-9.282h.798v7.35c.793-1.559 1.69-2.641 2.688-3.248.765-.457 1.685-.686 2.758-.686.97 0 1.773.299 2.408.896.653.635.98 1.465.98 2.492v2.058c0 .13-.028.27-.084.42H177.764c.205 0 .364-.051.476-.154.121-.121.182-.29.182-.504v-5.04h.812v5.278c0 .317-.121.593-.364.826a1.03 1.03 0 0 1-.77.336l-.043-.001-2.589.001-.001-.001-.503.001-.308-.434h-.028c-.243.29-.532.434-.868.434h-11.298a1.03 1.03 0 0 1-.77-.336 1.109 1.109 0 0 1-.364-.826v-8.862h.812zm9.296 4.102c-.877 0-1.647.215-2.31.644-1.279.821-2.291 2.333-3.038 4.536h7.336c.439 0 .658-.22.658-.658v-2.086c0-.728-.22-1.302-.658-1.722-.495-.476-1.157-.714-1.988-.714zm7.378-3.598c.14 0 .261.051.364.154a.514.514 0 0 1 .154.378c0 .14-.051.264-.154.371a.487.487 0 0 1-.364.161.503.503 0 0 1-.378-.161.521.521 0 0 1-.154-.371c0-.15.051-.275.154-.378a.514.514 0 0 1 .378-.154zm-8.148 0c.14 0 .261.051.364.154a.514.514 0 0 1 .154.378c0 .14-.051.264-.154.371a.487.487 0 0 1-.364.161.503.503 0 0 1-.378-.161.521.521 0 0 1-.154-.371c0-.15.051-.275.154-.378a.514.514 0 0 1 .378-.154zm-15.876 8.778c-.635-.607-.952-1.41-.952-2.408 0-1.101.308-1.965.924-2.59.55-.57 1.283-.854 2.198-.854.803 0 1.428.191 1.876.574.495.43.742 1.073.742 1.932v2.926c0 .317-.121.593-.364.826a1.03 1.03 0 0 1-.77.336h-4.27c-.43 0-.644.22-.644.658v4.228l-.42.336h-.392v-4.802c0-.299.114-.567.343-.805.229-.238.492-.357.791-.357h.938zm3.976-3.346c0-.55-.187-1.003-.56-1.358-.327-.27-.742-.406-1.246-.406-.756 0-1.353.308-1.792.924-.355.495-.532 1.083-.532 1.764 0 .775.21 1.381.63 1.82.373.401.877.602 1.512.602h1.344c.43 0 .644-.22.644-.658v-2.688zM140.202 126c-.01 2.221-1.255 3.332-3.738 3.332a5.21 5.21 0 0 1-.42-.014l-.406-.504v-.238c.252.019.495.028.728.028 1.036 0 1.797-.196 2.282-.588.504-.41.756-1.055.756-1.932v-6.524h.798v5.698h6.825c.439 0 .658-.22.658-.658v-1.848c0-1.773-.882-2.66-2.646-2.66-.635 0-1.316.107-2.044.322v-.644c.83-.261 1.582-.392 2.254-.392.999 0 1.806.322 2.422.966.55.57.826 1.283.826 2.142v2.352c0 .345-.135.64-.406.882-.224.187-.467.28-.728.28h-7.161zm4.459 1.778c.15 0 .275.051.378.154a.514.514 0 0 1 .154.378c0 .14-.051.264-.154.371a.503.503 0 0 1-.378.161.487.487 0 0 1-.364-.161.521.521 0 0 1-.154-.371c0-.15.051-.275.154-.378a.498.498 0 0 1 .364-.154zm-13.391-8.302a6.486 6.486 0 0 1 1.12-.098c.97 0 1.764.299 2.38.896.56.55.84 1.25.84 2.1v2.464c0 .317-.121.593-.364.826a1.03 1.03 0 0 1-.77.336h-4.62v-.742h4.284c.439 0 .658-.22.658-.658v-2.058c0-.868-.303-1.521-.91-1.96-.485-.364-1.115-.546-1.89-.546-.261 0-.504.019-.728.056v-.616zm-18.431 8.302c.15 0 .275.051.378.154a.514.514 0 0 1 .154.378c0 .14-.051.264-.154.371a.503.503 0 0 1-.378.161.51.51 0 0 1-.371-.161.51.51 0 0 1-.161-.371c0-.15.054-.275.161-.378a.521.521 0 0 1 .371-.154zm1.386 0c.14 0 .261.051.364.154a.514.514 0 0 1 .154.378c0 .14-.051.264-.154.371a.487.487 0 0 1-.364.161.503.503 0 0 1-.378-.161.521.521 0 0 1-.154-.371c0-.15.051-.275.154-.378a.514.514 0 0 1 .378-.154zm8.106-8.778c1.372 0 2.338.457 2.898 1.372.42.69.63 1.675.63 2.954v1.512c0 .317-.121.593-.364.826a1.03 1.03 0 0 1-.77.336h-3.29c-.57 0-.947-.019-1.134-.056h-.056c-.158.033-.481.052-.97.055h-1.354l-2.492.001h-.602l-.308-.434h-.042c-.243.29-.532.434-.868.434h-2.716l-.308-.434h-.042c-.243.29-.532.434-.868.434h-2.212l-.001-.001-.237.001c-.383 0-.7-.163-.952-.49-.69.439-1.39.658-2.1.658-.98 0-1.755-.364-2.324-1.092-.467-.597-.7-1.33-.7-2.198 0-1.092.355-1.979 1.064-2.66.625-.597 1.4-.896 2.324-.896.532 0 1.05.107 1.554.322l.42-.35h.406v5.306c0 .196.056.35.168.462.13.13.285.196.462.196h1.806c.224 0 .392-.065.504-.196.103-.112.154-.266.154-.462v-5.04h.798v5.278c0 .13-.028.27-.084.42h2.562c.224 0 .392-.065.504-.196.103-.112.154-.266.154-.462v-5.04h.798v5.278c0 .13-.028.27-.084.42h4.018a3.148 3.148 0 0 1-.588-.826 3.415 3.415 0 0 1-.322-1.442c0-.97.261-1.703.784-2.198.196-.177.425-.317.686-.42v-.658a6.936 6.936 0 0 1 3.094-.714zm-17.682 1.022c-.83 0-1.507.317-2.03.952-.43.532-.644 1.167-.644 1.904 0 .803.238 1.442.714 1.918.42.41.957.616 1.61.616.513 0 1.115-.187 1.806-.56l-.014-4.466a3.09 3.09 0 0 0-1.442-.364zm17.556-.28c-.672 0-1.39.145-2.156.434.075-.01.15-.014.224-.014.868 0 1.521.303 1.96.91.355.485.532 1.115.532 1.89 0 .476-.107.943-.322 1.4-.15.327-.35.625-.602.896h2.548c.205 0 .364-.051.476-.154.121-.121.182-.29.182-.504v-1.078c0-1.587-.29-2.632-.868-3.136-.485-.43-1.143-.644-1.974-.644zm-1.96 1.064c-.513 0-.92.163-1.218.49-.345.383-.518.957-.518 1.722 0 .448.107.854.322 1.218.317.56.789.877 1.414.952.653-.084 1.143-.415 1.47-.994.205-.364.308-.756.308-1.176 0-.775-.187-1.349-.56-1.722-.299-.327-.705-.49-1.218-.49zm-15.246-4.326c.14 0 .264.051.371.154a.503.503 0 0 1 .161.378.51.51 0 0 1-.161.371.51.51 0 0 1-.371.161.503.503 0 0 1-.378-.161.521.521 0 0 1-.154-.371c0-.15.051-.275.154-.378a.514.514 0 0 1 .378-.154zm1.372 0c.15 0 .275.051.378.154a.514.514 0 0 1 .154.378c0 .14-.051.264-.154.371a.503.503 0 0 1-.378.161.487.487 0 0 1-.364-.161.521.521 0 0 1-.154-.371c0-.15.051-.275.154-.378a.498.498 0 0 1 .364-.154zm3.724-1.568a2.1 2.1 0 0 1 .686.126v.42a1.611 1.611 0 0 0-.532-.098c-.523 0-.784.27-.784.812a.91.91 0 0 0 .196.574c.187.187.41.28.672.28h.896v.168l-.224.28h-2.296v-.448h.602c-.215-.261-.322-.593-.322-.994 0-.317.105-.583.315-.798a1.06 1.06 0 0 1 .791-.322zm-11.861 1.064v10.038l-.42.336h-.392v-10.374h.812zM91.101 126l-.308-.434h-.042c-.243.29-.532.434-.868.434h-4.466c-.43 0-.737-.023-.924-.07h-.028c-.187.047-.5.07-.938.07h-4.158v-.742h3.234c-.7-.7-1.05-1.559-1.05-2.576 0-1.064.299-1.895.896-2.492.523-.532 1.2-.798 2.03-.798.793 0 1.451.247 1.974.742.644.607.966 1.456.966 2.548 0 1.008-.355 1.867-1.064 2.576h3.206c.224 0 .392-.065.504-.196.103-.112.154-.266.154-.462v-5.04h.798v5.278c0 .13-.028.27-.084.42H94.02c.205 0 .364-.051.476-.154.121-.121.182-.29.182-.504v-8.624h.798v8.862c0 .317-.117.593-.35.826a1.075 1.075 0 0 1-.784.336h-3.241zm-6.622-5.866c-.747 0-1.307.28-1.68.84-.299.439-.448 1.003-.448 1.694 0 .737.205 1.353.616 1.848.392.467.896.719 1.512.756.7-.047 1.25-.369 1.652-.966a2.884 2.884 0 0 0 .476-1.638c0-.83-.205-1.47-.616-1.918-.373-.41-.877-.616-1.512-.616zm6.146-3.654c.14 0 .264.051.371.154a.503.503 0 0 1 .161.378.51.51 0 0 1-.161.371.51.51 0 0 1-.371.161.503.503 0 0 1-.378-.161.521.521 0 0 1-.154-.371c0-.15.051-.275.154-.378a.514.514 0 0 1 .378-.154zm-6.706 0c.15 0 .275.051.378.154a.514.514 0 0 1 .154.378c0 .14-.051.264-.154.371a.503.503 0 0 1-.378.161.487.487 0 0 1-.364-.161.521.521 0 0 1-.154-.371c0-.15.051-.275.154-.378a.498.498 0 0 1 .364-.154zm1.386 0c.15 0 .275.051.378.154a.514.514 0 0 1 .154.378c0 .14-.051.264-.154.371a.503.503 0 0 1-.378.161.503.503 0 0 1-.378-.161.521.521 0 0 1-.154-.371c0-.15.051-.275.154-.378a.514.514 0 0 1 .378-.154zm-6.071-1.504v10.052c0 1.055-.308 1.871-.924 2.45-.616.579-1.484.868-2.604.868h-1.68c-1.055 0-1.885-.257-2.492-.77-.69-.579-1.036-1.428-1.036-2.548v-3.234l.406-.336h.406v3.584c0 .97.257 1.643.77 2.016s1.442.56 2.786.56c1.223 0 2.09-.163 2.604-.49.635-.401.952-1.097.952-2.086v-10.066h.812z" fill-opacity=".7" fill="#000" fill-rule="nonzero"/>
        <path d="M158.58 33.28v47.04c0 2.613.672 4.667 2.016 6.16 1.344 1.493 3.08 2.557 5.208 3.192 2.128.635 4.387.952 6.776.952 2.39 0 4.741-.243 7.056-.728 2.315-.485 4.256-1.064 5.824-1.736-2.165 2.539-4.89 4.48-8.176 5.824-3.285 1.344-6.608 2.016-9.968 2.016-3.061 0-5.936-.56-8.624-1.68-2.688-1.12-4.89-2.837-6.608-5.152-1.493-2.09-2.315-4.667-2.464-7.728V35.52l8.96-2.24zm11.148-.09c.821 0 1.599.281 2.333.843.735.562 1.253 1.36 1.556 2.398-.778-.303-1.512-.454-2.204-.454-.82 0-1.436.216-1.847.648-.41.432-.616.886-.616 1.361 0 .432.14.821.422 1.167.28.346.659.518 1.134.518h5.898l-1.945 3.241h-12.055l1.88-3.24h1.231a4.734 4.734 0 0 1-.194-2.075c.086-1.21.508-2.246 1.264-3.11.756-.865 1.804-1.297 3.143-1.297zM70.436 96v.784a65.21 65.21 0 0 1-.112 4.032 20.062 20.062 0 0 1-.448 3.248c-.299 1.344-.784 2.39-1.456 3.136-.672.747-1.867 1.12-3.584 1.12H37.62l5.824-10.08c1.12 1.493 2.912 2.24 5.376 2.24h12.32c.15-.821.224-1.643.224-2.464 0-.672-.037-1.344-.112-2.016H57.78c-3.061 0-5.693-.99-7.896-2.968-2.203-1.979-3.304-4.35-3.304-7.112 0-2.763 1.101-5.133 3.304-7.112s4.835-2.968 7.896-2.968c2.837 0 5.245.877 7.224 2.632 1.979 1.755 3.416 4.2 4.312 7.336.15.747.299 1.53.448 2.352h4.816V70.24L83.54 68v7.84h48.832c1.27 0 2.632.205 4.088.616 1.456.41 2.837 1.232 4.144 2.464s2.39 3.024 3.248 5.376c.859 2.352 1.288 5.47 1.288 9.352 0 1.195-.299 1.885-.896 2.072-.597.187-1.083.28-1.456.28H70.436zm60.816-12.32H83.54v4.48h52.192c0-1.27-.43-2.333-1.288-3.192-.859-.859-1.923-1.288-3.192-1.288zm-73.472 0c-.597 0-1.12.224-1.568.672-.448.448-.672.97-.672 1.568 0 .597.224 1.12.672 1.568.448.448.97.672 1.568.672l.196-.008c.517-.045.974-.266 1.372-.664.448-.448.672-.97.672-1.568 0-.597-.224-1.12-.672-1.568-.448-.448-.97-.672-1.568-.672zM0 109h27.104c1.27 0 2.296-.392 3.08-1.176.784-.784 1.176-1.885 1.176-3.304V18.28l-8.96 2.24v80.64H11.2c-1.12 0-2.147-.168-3.08-.504a4.793 4.793 0 0 1-2.296-1.736L0 109z" fill="orange" fill-rule="nonzero"/>
        <path stroke="#303030" stroke-width="2.094" d="M86.725 0v37.815M94.489 0v32.489M99.001 0v32.489M103.093 0v32.489M109.074 0v32.489M112.956 0v32.489M120.406 0v20.452M124.707 0v19.707M130.373 0v21.624M134.675 0v32.489"/>
        <g stroke="#303030" stroke-width="2.094">
            <path d="M131.842 38.135a10.652 10.652 0 0 1-15.214 0c-4.197-4.261-4.197-11.079 0-15.233s11.017-4.26 15.214 0c4.197 4.261 4.197 10.972 0 15.233zM116.628 38.134 105.821 49"/>
        </g>
        <path d="M95.853 36.963c0 2.13-.734 3.302-2.098 3.302-1.155 0-1.994-1.172-1.994-3.195 0-2.13.84-3.196 2.099-3.196 1.259 0 1.993 1.172 1.993 3.089zm-3.357.107c0 1.597.524 2.556 1.259 2.556.839 0 1.259-.959 1.259-2.556 0-1.492-.42-2.557-1.26-2.557-.734 0-1.258.852-1.258 2.557zM102.778 36.963c0 2.13-.734 3.302-2.098 3.302-1.155 0-1.994-1.172-1.994-3.195 0-2.13.84-3.196 2.099-3.196 1.259 0 1.993 1.172 1.993 3.089zm-3.253.107c0 1.597.525 2.556 1.26 2.556.839 0 1.259-.959 1.259-2.556 0-1.492-.42-2.557-1.26-2.557-.734 0-1.259.852-1.259 2.557zM109.179 36.963c0 2.13-.735 3.302-2.099 3.302-1.154 0-1.993-1.172-1.993-3.195 0-2.13.839-3.196 2.098-3.196 1.26 0 1.994 1.172 1.994 3.089zm-3.253.107c0 1.597.525 2.556 1.259 2.556.84 0 1.26-.959 1.26-2.556 0-1.492-.42-2.557-1.26-2.557-.734 0-1.26.852-1.26 2.557z" fill="#303030" fill-rule="nonzero"/>
    </g>
</svg>
