<svg width="100" height="100" viewBox="0 0 100 100" xmlns="http://www.w3.org/2000/svg">
    <g fill="none" fill-rule="evenodd">
        <path d="M50 0c27.614 0 50 22.386 50 50s-22.386 50-50 50S0 77.614 0 50 22.386 0 50 0z" fill-opacity=".298" fill="#F5F5F5"/>
        <g transform="translate(22 20)" fill-rule="nonzero">
            <path d="M36.886 52.94H2.436C1.094 52.94 0 51.818 0 50.443V13.98c0-.688.24-1.28.713-1.766L11.916.731A2.324 2.324 0 0 1 13.638 0h23.248c1.342 0 2.436 1.122 2.436 2.497v47.946c0 1.375-1.094 2.497-2.436 2.497z" fill="#EFF4F7"/>
            <path d="M11.916.731.713 12.214a2.503 2.503 0 0 0-.502.732H10.43c1.211 0 2.2-1.013 2.2-2.255V.216a2.44 2.44 0 0 0-.714.515z" fill="#E2E3E3"/>
            <path d="M17.907 46.12a.958.958 0 0 1-.946-.97c0-.536.423-.97.946-.97h15.61c.523 0 .946.434.946.97s-.423.97-.946.97h-15.61zm0-37.323a.958.958 0 0 1-.946-.97c0-.536.423-.97.946-.97h15.61c.523 0 .946.434.946.97 0 .535-.423.97-.946.97h-15.61zm0 5.332a.958.958 0 0 1-.946-.97c0-.536.423-.97.946-.97h15.61c.523 0 .946.434.946.97 0 .535-.423.97-.946.97h-15.61zm0 5.331a.958.958 0 0 1-.946-.97c0-.535.423-.97.946-.97h15.61c.523 0 .946.435.946.97 0 .536-.423.97-.946.97h-15.61zm0 5.332a.958.958 0 0 1-.946-.97c0-.535.423-.97.946-.97h15.61c.523 0 .946.435.946.97 0 .536-.423.97-.946.97h-15.61zm0 5.332a.958.958 0 0 1-.946-.97c0-.535.423-.97.946-.97h15.61c.523 0 .946.435.946.97 0 .536-.423.97-.946.97h-15.61zm0 5.332a.958.958 0 0 1-.946-.97c0-.535.423-.97.946-.97h15.61c.523 0 .946.435.946.97 0 .536-.423.97-.946.97h-15.61zm0 5.332a.958.958 0 0 1-.946-.97c0-.535.423-.97.946-.97h15.61c.523 0 .946.435.946.97 0 .536-.423.97-.946.97h-15.61z" fill="#A7A7A7"/>
            <path d="M13.136 17.809a.932.932 0 0 1 .667-.285c.25-.001.49.1.667.281a.98.98 0 0 1 .279.683.98.98 0 0 1-.275.684l-5.153 5.332a.927.927 0 0 1-1.327.012l-2.875-2.873a.984.984 0 0 1-.012-1.36.927.927 0 0 1 1.328-.026l2.205 2.204 4.496-4.652zm0 10.664a.932.932 0 0 1 .667-.286c.25 0 .49.1.667.282a.98.98 0 0 1 .279.683.98.98 0 0 1-.275.684l-5.153 5.332a.927.927 0 0 1-1.327.012l-2.875-2.873a.984.984 0 0 1-.012-1.36.927.927 0 0 1 1.328-.026l2.205 2.204 4.496-4.652zm0 10.663a.932.932 0 0 1 .667-.285c.25 0 .49.1.667.281a.98.98 0 0 1 .279.683.98.98 0 0 1-.275.685l-5.153 5.332a.927.927 0 0 1-1.327.011l-2.875-2.872a.984.984 0 0 1-.012-1.361.927.927 0 0 1 1.328-.025l2.205 2.203 4.496-4.652z" fill="#4294FF"/>
            <path d="M39.322 26.75v20.822a12.656 12.656 0 0 1-7.968 2.821c-7.129 0-12.908-5.924-12.908-13.232 0-7.307 5.78-13.231 12.908-13.231 3.007 0 5.774 1.054 7.968 2.82z" fill="#E2E3E3"/>
            <path d="M19.957 44.18h13.56c.523 0 .946.434.946.97s-.423.97-.946.97H21.402a13.248 13.248 0 0 1-1.445-1.94zm11.397-20.25c1.03 0 2.033.124 2.993.358a.942.942 0 0 1-.83.504h-6.754a12.595 12.595 0 0 1 4.591-.862zm-12.87 16.858a13.444 13.444 0 0 1-.388-1.94h15.421c.523 0 .946.435.946.97 0 .536-.423.97-.946.97H18.483zm-.385-5.332c.082-.656.212-1.304.39-1.94h15.028c.523 0 .946.435.946.97 0 .536-.423.97-.946.97H18.1zm1.87-5.332c.424-.69.909-1.34 1.45-1.94h12.098c.523 0 .946.435.946.97 0 .536-.423.97-.946.97H19.97z" fill="#A7A7A7"/>
            <path d="M20.41 44.18h13.107c.523 0 .946.434.946.97s-.423.97-.946.97H21.855a13.248 13.248 0 0 1-1.444-1.94zm10.944-20.25c1.03 0 2.033.124 2.993.358a.942.942 0 0 1-.83.504h-6.754a12.595 12.595 0 0 1 4.591-.862zM18.937 40.788a13.444 13.444 0 0 1-.387-1.94h14.967c.523 0 .946.435.946.97 0 .536-.423.97-.946.97h-14.58zm-.385-5.332c.083-.656.213-1.304.39-1.94h14.575c.523 0 .946.435.946.97 0 .536-.423.97-.946.97H18.552zm1.87-5.332c.424-.69.91-1.34 1.45-1.94h11.645c.523 0 .946.435.946.97 0 .536-.423.97-.946.97H20.422z" fill="#979798"/>
            <path fill="#455A64" d="m43.575 49.35-3.478-3.565 1.684-2.447 3.534 3.623z"/>
            <path d="m45.802 46.246-3.22 3.3a.47.47 0 0 0 0 .651l8.768 8.988a2.686 2.686 0 0 0 3.855 0 2.852 2.852 0 0 0 0-3.951l-8.768-8.988a.443.443 0 0 0-.635 0z" fill="#004960"/>
            <path d="m45.802 46.246-3.22 3.3a.47.47 0 0 0 0 .651l2.186 2.241 3.855-3.95-2.186-2.242a.442.442 0 0 0-.635 0z" fill="#00242F"/>
            <ellipse fill="#004960" transform="rotate(-76.3 32.534 35.907)" cx="32.534" cy="35.907" rx="13.214" ry="12.927"/>
            <circle fill="#4294FF" transform="rotate(-45 32.55 35.97)" cx="32.551" cy="35.971" r="9.739"/>
            <path d="M42.176 35.97c0 1.785-.462 3.458-1.271 4.902l-8.347-4.901v-9.859c5.312 0 9.618 4.414 9.618 9.859z" fill="#EB3B48"/>
            <path d="m32.558 35.97 8.347 4.902a10.002 10.002 0 0 0 1.271-4.901c0-1.796-.469-3.48-1.287-4.93l-8.33 4.93z" fill="#FFE600"/>
        </g>
    </g>
</svg>
