<svg width="100" height="100" viewBox="0 0 100 100" xmlns="http://www.w3.org/2000/svg">
    <g fill="none" fill-rule="evenodd">
        <path d="M50 0c27.614 0 50 22.386 50 50s-22.386 50-50 50S0 77.614 0 50 22.386 0 50 0z" fill-opacity=".3" fill="#F5F5F5"/>
        <g fill-rule="nonzero">
            <path d="M75.652 51.65a153.34 153.34 0 0 0-22.14 0c-2.072.15-3.74 1.76-3.928 3.81a100.2 100.2 0 0 0 0 18.33c.188 2.05 1.856 3.66 3.927 3.81 7.371.533 14.77.533 22.141 0 2.072-.15 3.74-1.76 3.928-3.81a100.2 100.2 0 0 0 0-18.33c-.188-2.05-1.856-3.66-3.928-3.81z" fill="#EDEDED"/>
            <path d="M54.813 73.387a.879.879 0 0 1-.619-.254.864.864 0 0 1-.256-.614V56.731c0-.48.392-.868.875-.868s.875.388.875.868v15.788c0 .23-.092.451-.256.614a.879.879 0 0 1-.619.254zm3.256-2.653a.879.879 0 0 1-.619-.254.864.864 0 0 1-.256-.614V56.731c0-.48.392-.868.875-.868.484 0 .875.388.875.868v13.135c0 .23-.092.451-.256.614a.879.879 0 0 1-.619.254zm3.257 0a.879.879 0 0 1-.62-.254.864.864 0 0 1-.256-.614V56.731c0-.48.392-.868.876-.868.483 0 .875.388.875.868v13.135c0 .23-.092.451-.257.614a.879.879 0 0 1-.618.254zm3.256 0a.879.879 0 0 1-.62-.254.864.864 0 0 1-.255-.614V56.731c0-.48.391-.868.875-.868.483 0 .875.388.875.868v13.135c0 .23-.092.451-.256.614a.879.879 0 0 1-.62.254zm-6.513 2.653a.879.879 0 0 1-.619-.254.864.864 0 0 1-.256-.614v-.06c0-.48.392-.868.875-.868.484 0 .875.388.875.868v.06c0 .23-.092.451-.256.614a.879.879 0 0 1-.619.254zm3.257 0a.879.879 0 0 1-.62-.254.864.864 0 0 1-.256-.614v-.06c0-.48.392-.868.876-.868.483 0 .875.388.875.868v.06c0 .23-.092.451-.257.614a.879.879 0 0 1-.618.254zm3.256 0a.879.879 0 0 1-.62-.254.864.864 0 0 1-.255-.614v-.06c0-.48.391-.868.875-.868.483 0 .875.388.875.868v.06c0 .23-.092.451-.256.614a.879.879 0 0 1-.62.254zm6.512 0a.879.879 0 0 1-.618-.254.864.864 0 0 1-.257-.614v-.06c0-.48.392-.868.875-.868.484 0 .876.388.876.868v.06c0 .23-.092.451-.257.614a.879.879 0 0 1-.619.254zm3.257 0a.879.879 0 0 1-.62-.254.864.864 0 0 1-.255-.614v-.06c0-.48.391-.868.875-.868.483 0 .875.388.875.868v.06c0 .48-.392.868-.875.868zm-6.513 0a.879.879 0 0 1-.619-.254.864.864 0 0 1-.256-.614V56.731c0-.48.392-.868.875-.868.484 0 .875.388.875.868v15.788c0 .48-.391.868-.875.868zm3.256-2.653a.879.879 0 0 1-.618-.254.864.864 0 0 1-.257-.614V56.731c0-.48.392-.868.875-.868.484 0 .876.388.876.868v13.135c0 .23-.092.451-.257.614a.879.879 0 0 1-.619.254zm3.257 0a.879.879 0 0 1-.62-.254.864.864 0 0 1-.255-.614V56.731c0-.48.391-.868.875-.868.483 0 .875.388.875.868v13.135c0 .48-.392.868-.875.868z" fill="#365E7D"/>
            <path d="m49.948 41.45-3.264 8.637-1.163 3.078a3.542 3.542 0 0 1-3.707 2.255l-7.22-.802-.007-5.536-.01-7.633h15.37z" fill="#DB5C6E"/>
            <path d="m49.948 41.45-3.264 8.637c-3.593-.144-7.88-.434-12.097-1.005l-.01-7.633h15.37z" fill="#D64553"/>
            <path d="M41.384 48.686c-4.775 7.301-5.513 16.092-5.513 16.092l1.08 1.07a3.893 3.893 0 0 1 1.153 2.763c0 .498-.096.992-.284 1.454a3.949 3.949 0 0 1-4.29 2.4c-3.713-.595-6.407-2.101-7.813-3.06a2.511 2.511 0 0 1-1.106-2.108c.131-8.86 1.614-16.153 2.708-20.377.655-2.533 1.171-3.962 1.171-3.962l16.064 1.808a23.98 23.98 0 0 0-3.17 3.92z" fill="#407093"/>
            <path d="M44.554 44.766a23.968 23.968 0 0 0-3.17 3.92c-4.474-.281-9.533-.804-14.065-1.766.655-2.533 1.171-3.962 1.171-3.962l16.064 1.808z" fill="#365E7D"/>
            <path d="M44.553 44.766c-.444.44-.868.9-1.273 1.375l-12.558-1.413s-3.67 10.17-3.88 24.34c-.005.42.096.836.296 1.207a17.707 17.707 0 0 1-1.42-.87 2.511 2.511 0 0 1-1.106-2.108c.21-14.17 3.879-24.339 3.879-24.339l16.062 1.808z" fill="#365E7D"/>
            <path d="M63.015 30.21c-.187 3.144-.682 7.787-1.973 12.294a4.044 4.044 0 0 1-3.917 2.925c-4.958-.03-15.152-.355-22.763-2.354a4.012 4.012 0 0 1-2.9-2.999 55.394 55.394 0 0 1-1.176-7.913c-.146-1.997 1.22-3.79 3.195-4.206 5.03-1.06 15.13-2.742 25.795-1.981 2.204.157 3.87 2.046 3.739 4.234z" fill="#DB5C6E"/>
            <path d="M61.187 41.978c-.047.176-.095.35-.146.526a4.044 4.044 0 0 1-3.917 2.925c-4.957-.03-15.152-.355-22.763-2.353a4.015 4.015 0 0 1-2.9-3 55.422 55.422 0 0 1-1.175-7.914 3.975 3.975 0 0 1 1.232-3.176c-.045.293-.057.59-.035.886.239 3.247.762 6.064 1.177 7.914a4.008 4.008 0 0 0 2.899 2.998c7.611 1.999 17.806 2.324 22.762 2.353a4.051 4.051 0 0 0 2.866-1.159z" fill="#D64553"/>
            <path d="M58.93 29.52c-.212 3.545-.77 8.783-2.226 13.867a4.562 4.562 0 0 1-4.419 3.299c-5.592-.034-17.09-.4-25.675-2.655a4.525 4.525 0 0 1-3.27-3.383 62.48 62.48 0 0 1-1.328-8.926c-.165-2.252 1.377-4.276 3.604-4.744 5.675-1.195 17.065-3.093 29.096-2.235 2.486.177 4.364 2.308 4.217 4.777z" fill="#407093"/>
            <path d="M33.61 45.415c-2.426-.356-4.808-.808-7-1.384a4.524 4.524 0 0 1-3.27-3.383 62.31 62.31 0 0 1-1.328-8.926c-.165-2.25 1.376-4.275 3.604-4.743 1.784-.375 3.578-.706 5.378-.996-.552.109-1.104.22-1.655.336-2.397.505-4.057 2.682-3.88 5.107a67.12 67.12 0 0 0 1.43 9.608 4.871 4.871 0 0 0 3.52 3.642c1.032.27 2.103.516 3.2.739z" fill="#365E7D"/>
            <path d="M51.76 37.102H29.316a1.488 1.488 0 0 1-1.495-1.482c0-.819.67-1.482 1.495-1.482H51.76c.825 0 1.494.663 1.494 1.482 0 .818-.669 1.482-1.494 1.482z" fill="#EDEDED"/>
            <path d="M68.81 35.579v.24c0 .848.662 1.552 1.515 1.61l2.624.178a1.621 1.621 0 0 0 1.738-1.61V35.4c0-.934-.798-1.673-1.738-1.609l-2.624.179a1.619 1.619 0 0 0-1.515 1.609zm-2.025 7.735-.122.209a1.605 1.605 0 0 0 .501 2.145l2.183 1.456a1.634 1.634 0 0 0 2.316-.532l.302-.518a1.607 1.607 0 0 0-.694-2.255l-2.363-1.147a1.634 1.634 0 0 0-2.123.642zm-.122-15.438.122.208a1.634 1.634 0 0 0 2.123.642l2.363-1.146a1.607 1.607 0 0 0 .694-2.256l-.302-.517a1.634 1.634 0 0 0-2.316-.532l-2.183 1.456a1.605 1.605 0 0 0-.5 2.145z" fill="#CC7964"/>
        </g>
    </g>
</svg>
